<svg width="59" height="55" viewBox="0 0 59 55" fill="none" xmlns="http://www.w3.org/2000/svg">
<path d="M31.3438 5.15625C31.3438 3.78873 31.9265 2.47722 32.9638 1.51023C34.0011 0.543246 35.408 0 36.875 0L51.625 0C53.581 0 55.4568 0.724328 56.8399 2.01364C58.223 3.30295 59 5.05164 59 6.875V48.125C59 49.9484 58.223 51.697 56.8399 52.9864C55.4568 54.2757 53.581 55 51.625 55H7.375C5.41903 55 3.54317 54.2757 2.16009 52.9864C0.777007 51.697 0 49.9484 0 48.125V6.875C0 5.05164 0.777007 3.30295 2.16009 2.01364C3.54317 0.724328 5.41903 0 7.375 0L29.5 0C28.3421 1.43687 27.6562 3.22094 27.6562 5.15625V31.9447L17.8991 22.8456C17.7277 22.6858 17.5242 22.5591 17.3002 22.4726C17.0762 22.3861 16.8362 22.3416 16.5938 22.3416C16.3513 22.3416 16.1113 22.3861 15.8873 22.4726C15.6633 22.5591 15.4598 22.6858 15.2884 22.8456C15.117 23.0054 14.981 23.1951 14.8882 23.4039C14.7954 23.6127 14.7477 23.8365 14.7477 24.0625C14.7477 24.2885 14.7954 24.5123 14.8882 24.7211C14.981 24.9299 15.117 25.1196 15.2884 25.2794L28.1946 37.3106C28.3659 37.4707 28.5694 37.5977 28.7934 37.6843C29.0173 37.771 29.2575 37.8156 29.5 37.8156C29.7425 37.8156 29.9827 37.771 30.2066 37.6843C30.4306 37.5977 30.6341 37.4707 30.8054 37.3106L43.7116 25.2794C44.0578 24.9566 44.2523 24.5189 44.2523 24.0625C44.2523 23.6061 44.0578 23.1684 43.7116 22.8456C43.3654 22.5229 42.8959 22.3416 42.4062 22.3416C41.9166 22.3416 41.4471 22.5229 41.1009 22.8456L31.3438 31.9447V5.15625Z" fill="#2D9CDB"/>
</svg>
