<svg width="60" height="60" viewBox="0 0 60 60" fill="none" xmlns="http://www.w3.org/2000/svg">
<path d="M55.459 29.5899L31.3242 5.47267C31.1504 5.29855 30.944 5.16042 30.7168 5.06617C30.4896 4.97191 30.246 4.9234 30 4.9234C29.754 4.9234 29.5104 4.97191 29.2832 5.06617C29.056 5.16042 28.8496 5.29855 28.6758 5.47267L4.54102 29.5899C3.83789 30.293 3.43945 31.2481 3.43945 32.2442C3.43945 34.3125 5.12109 35.9942 7.18945 35.9942H9.73242V53.2031C9.73242 54.2402 10.5703 55.0781 11.6074 55.0781H26.25V41.9531H32.8125V55.0781H48.3926C49.4297 55.0781 50.2676 54.2402 50.2676 53.2031V35.9942H52.8105C53.8066 35.9942 54.7617 35.6016 55.4648 34.8926C56.9238 33.4277 56.9238 31.0547 55.459 29.5899Z" fill="#2D9CDB"/>
</svg>
