<svg width="60" height="60" viewBox="0 0 60 60" fill="none" xmlns="http://www.w3.org/2000/svg">
<path d="M60 30C60 34.0625 59.2057 37.9427 57.6172 41.6406C56.0286 45.3385 53.8932 48.5286 51.2109 51.2109C48.5286 53.8932 45.3385 56.0286 41.6406 57.6172C37.9427 59.2057 34.0625 60 30 60C25.5208 60 21.263 59.056 17.2266 57.168C13.1901 55.2799 9.7526 52.6172 6.91406 49.1797C6.73177 48.9193 6.64714 48.6263 6.66016 48.3008C6.67318 47.9753 6.78385 47.7083 6.99219 47.5L12.3438 42.1094C12.6042 41.875 12.9297 41.7578 13.3203 41.7578C13.737 41.8099 14.0365 41.9661 14.2188 42.2266C16.1198 44.7005 18.4505 46.6146 21.2109 47.9688C23.9714 49.3229 26.901 50 30 50C32.7083 50 35.293 49.4727 37.7539 48.418C40.2148 47.3633 42.3438 45.9375 44.1406 44.1406C45.9375 42.3438 47.3633 40.2148 48.418 37.7539C49.4727 35.293 50 32.7083 50 30C50 27.2917 49.4727 24.707 48.418 22.2461C47.3633 19.7852 45.9375 17.6562 44.1406 15.8594C42.3438 14.0625 40.2148 12.6367 37.7539 11.582C35.293 10.5273 32.7083 10 30 10C27.4479 10 25 10.4622 22.6562 11.3867C20.3125 12.3112 18.2292 13.6328 16.4062 15.3516L21.7578 20.7422C22.5651 21.5234 22.7474 22.4219 22.3047 23.4375C21.862 24.4792 21.0938 25 20 25H2.5C1.82292 25 1.23698 24.7526 0.742188 24.2578C0.247396 23.763 0 23.1771 0 22.5V5C0 3.90625 0.520833 3.13802 1.5625 2.69531C2.57812 2.2526 3.47656 2.4349 4.25781 3.24219L9.33594 8.28125C12.1224 5.65104 15.306 3.61328 18.8867 2.16797C22.4674 0.722656 26.1719 0 30 0C34.0625 0 37.9427 0.794271 41.6406 2.38281C45.3385 3.97135 48.5286 6.10677 51.2109 8.78906C53.8932 11.4714 56.0286 14.6615 57.6172 18.3594C59.2057 22.0573 60 25.9375 60 30ZM35 18.75V36.25C35 36.6146 34.8828 36.9141 34.6484 37.1484C34.4141 37.3828 34.1146 37.5 33.75 37.5H21.25C20.8854 37.5 20.5859 37.3828 20.3516 37.1484C20.1172 36.9141 20 36.6146 20 36.25V33.75C20 33.3854 20.1172 33.0859 20.3516 32.8516C20.5859 32.6172 20.8854 32.5 21.25 32.5H30V18.75C30 18.3854 30.1172 18.0859 30.3516 17.8516C30.5859 17.6172 30.8854 17.5 31.25 17.5H33.75C34.1146 17.5 34.4141 17.6172 34.6484 17.8516C34.8828 18.0859 35 18.3854 35 18.75Z" fill="#2D9CDB"/>
</svg>
