<svg width="60" height="60" viewBox="0 0 60 60" fill="none" xmlns="http://www.w3.org/2000/svg">
<g clip-path="url(#clip0_212_112)">
<path d="M34.8488 0H15C13.0109 0 11.1032 0.790176 9.6967 2.1967C8.29018 3.60322 7.5 5.51088 7.5 7.5V52.5C7.5 54.4891 8.29018 56.3968 9.6967 57.8033C11.1032 59.2098 13.0109 60 15 60H45C46.9891 60 48.8968 59.2098 50.3033 57.8033C51.7098 56.3968 52.5 54.4891 52.5 52.5V17.6512C52.4998 16.6568 52.1046 15.7031 51.4012 15L37.5 1.09875C36.7969 0.39544 35.8432 0.00021239 34.8488 0V0ZM35.625 13.125V5.625L46.875 16.875H39.375C38.3804 16.875 37.4266 16.4799 36.7234 15.7766C36.0201 15.0734 35.625 14.1196 35.625 13.125ZM41.25 24.9V31.4625L33.75 33.3375V46.875C33.75 48.7313 32.6213 50.1862 31.2675 51.0863C29.9025 51.9975 28.1213 52.5 26.25 52.5C24.375 52.5 22.5975 51.9975 21.2325 51.0863C19.8825 50.1862 18.75 48.7313 18.75 46.875C18.75 45.0187 19.8788 43.5638 21.2325 42.6637C22.5975 41.7525 24.3787 41.25 26.25 41.25C27.585 41.25 28.875 41.505 30 41.985V25.8375C30 25.0015 30.2794 24.1895 30.7937 23.5305C31.308 22.8714 32.0278 22.4031 32.8387 22.2L36.5887 21.2625C37.1417 21.124 37.7189 21.1133 38.2766 21.2314C38.8343 21.3494 39.3577 21.5931 39.807 21.9437C40.2564 22.2944 40.62 22.7429 40.87 23.2552C41.12 23.7675 41.25 24.33 41.25 24.9Z" fill="#2D9CDB"/>
</g>
<defs>
<clipPath id="clip0_212_112">
<rect width="60" height="60" fill="white"/>
</clipPath>
</defs>
</svg>
