<svg width="72" height="72" viewBox="0 0 72 72" fill="none" xmlns="http://www.w3.org/2000/svg">
<path d="M60 9H12C8.691 9 6 11.691 6 15V57C6 60.309 8.691 63 12 63H60C63.309 63 66 60.309 66 57V15C66 11.691 63.309 9 60 9ZM60.003 27C60 27 60 27 60.003 27H58.608L50.607 15H60L60.003 27ZM28.608 27L20.607 15H28.395L36.396 27H28.608ZM43.608 27L35.607 15H43.395L51.396 27H43.608ZM12 15H13.395L21.396 27H12V15ZM12 57V33H60L60.006 57H12Z" fill="#2D9CDB"/>
<path d="M30 54L46.5 45L30 36V54Z" fill="#2D9CDB"/>
</svg>
