<svg width="290" height="79" viewBox="0 0 290 79" fill="none" xmlns="http://www.w3.org/2000/svg">
<path d="M219.004 17.5833H224.765V23.1667H226.205C227.351 23.1667 228.45 23.6079 229.26 24.3932C230.071 25.1785 230.526 26.2436 230.526 27.3542V37.125L229.258 38.3533L233.982 46.2817C237.18 43.2388 239.167 39.0233 239.167 34.3333H244.928C244.928 41.0892 241.846 47.1471 236.949 51.2508L245.994 66.4375L246.368 72.635L240.982 69.2292L232.139 54.3496C229.086 55.8292 225.572 56.6667 221.885 56.6667C218.198 56.6667 214.684 55.8292 211.63 54.3496L202.788 69.2292L197.401 72.635L197.776 66.4375L214.511 38.3533L213.244 37.125V27.3542C213.244 26.2436 213.699 25.1785 214.509 24.3932C215.319 23.6079 216.418 23.1667 217.564 23.1667H219.004V17.5833ZM214.511 49.4921C216.758 50.525 219.264 51.0833 221.885 51.0833C224.506 51.0833 227.012 50.525 229.258 49.4921L225.053 42.4292H225.024C223.238 44.1042 220.531 44.1042 218.745 42.4292H218.716L214.511 49.4921M221.885 28.75C221.121 28.75 220.388 29.0441 219.848 29.5677C219.308 30.0912 219.004 30.8013 219.004 31.5417C219.004 32.2821 219.308 32.9921 219.848 33.5157C220.388 34.0392 221.121 34.3333 221.885 34.3333C222.649 34.3333 223.381 34.0392 223.921 33.5157C224.462 32.9921 224.765 32.2821 224.765 31.5417C224.765 30.8013 224.462 30.0912 223.921 29.5677C223.381 29.0441 222.649 28.75 221.885 28.75Z" fill="#0066FF"/>
<path d="M138.682 58.5227V38.0909H145.5V73H138.818V66.9545H138.455C137.652 68.8182 136.364 70.3712 134.591 71.6136C132.833 72.8409 130.644 73.4545 128.023 73.4545C125.78 73.4545 123.795 72.9621 122.068 71.9773C120.356 70.9773 119.008 69.5 118.023 67.5455C117.053 65.5909 116.568 63.1742 116.568 60.2955V38.0909H123.364V59.4773C123.364 61.8561 124.023 63.75 125.341 65.1591C126.659 66.5682 128.371 67.2727 130.477 67.2727C131.75 67.2727 133.015 66.9545 134.273 66.3182C135.545 65.6818 136.598 64.7197 137.432 63.4318C138.28 62.1439 138.697 60.5076 138.682 58.5227Z" fill="#0066FF"/>
<path d="M5.11364 73V26.4545H34.2955V32.5H12.1364V46.6818H32.7727V52.7045H12.1364V66.9545H34.5682V73H5.11364ZM69.2898 46.6136L63.1307 47.7045C62.8731 46.9167 62.464 46.1667 61.9034 45.4545C61.358 44.7424 60.6155 44.1591 59.6761 43.7045C58.7367 43.25 57.5625 43.0227 56.1534 43.0227C54.2292 43.0227 52.6231 43.4545 51.3352 44.3182C50.0473 45.1667 49.4034 46.2652 49.4034 47.6136C49.4034 48.7803 49.8352 49.7197 50.6989 50.4318C51.5625 51.1439 52.9564 51.7273 54.8807 52.1818L60.4261 53.4545C63.6383 54.197 66.0322 55.3409 67.608 56.8864C69.1837 58.4318 69.9716 60.4394 69.9716 62.9091C69.9716 65 69.3655 66.8636 68.1534 68.5C66.9564 70.1212 65.2822 71.3939 63.1307 72.3182C60.9943 73.2424 58.517 73.7045 55.6989 73.7045C51.7898 73.7045 48.6004 72.8712 46.1307 71.2045C43.661 69.5227 42.1458 67.1364 41.5852 64.0455L48.1534 63.0455C48.5625 64.7576 49.4034 66.053 50.6761 66.9318C51.9489 67.7955 53.608 68.2273 55.6534 68.2273C57.8807 68.2273 59.661 67.7652 60.9943 66.8409C62.3277 65.9015 62.9943 64.7576 62.9943 63.4091C62.9943 62.3182 62.5852 61.4015 61.767 60.6591C60.964 59.9167 59.7292 59.3561 58.0625 58.9773L52.1534 57.6818C48.8958 56.9394 46.4867 55.7576 44.9261 54.1364C43.3807 52.5152 42.608 50.4621 42.608 47.9773C42.608 45.9167 43.1837 44.1136 44.3352 42.5682C45.4867 41.0227 47.0777 39.8182 49.108 38.9545C51.1383 38.0758 53.464 37.6364 56.0852 37.6364C59.858 37.6364 62.8277 38.4545 64.9943 40.0909C67.161 41.7121 68.5928 43.8864 69.2898 46.6136Z" fill="#0066FF"/>
<path d="M255.141 17.173C254.901 16.9408 254.711 16.6652 254.582 16.3619C254.452 16.0585 254.385 15.7334 254.385 15.405C254.385 15.0766 254.452 14.7515 254.582 14.4481C254.711 14.1448 254.901 13.8691 255.141 13.637L260.197 8.73699C260.436 8.50478 260.721 8.32057 261.034 8.19489C261.347 8.06921 261.682 8.00453 262.021 8.00453C262.36 8.00453 262.695 8.06921 263.008 8.19489C263.321 8.32057 263.606 8.50478 263.845 8.73699L264.671 9.53699C264.579 7.99739 264.03 6.51625 263.09 5.27211C262.15 4.02796 260.859 3.0739 259.372 2.52492C257.885 1.97594 256.266 1.85547 254.71 2.17803C253.154 2.50059 251.727 3.25241 250.602 4.34287C249.477 5.43334 248.701 6.81591 248.368 8.32395C248.036 9.832 248.16 11.4011 248.726 12.8423C249.293 14.2834 250.277 15.535 251.561 16.4462C252.845 17.3575 254.373 17.8894 255.961 17.978L255.141 17.173V17.173ZM263.124 9.43899L265.286 11.539C265.429 11.6782 265.544 11.8436 265.622 12.0257C265.7 12.2077 265.74 12.4029 265.74 12.6C265.74 12.7971 265.7 12.9923 265.622 13.1743C265.544 13.3564 265.429 13.5218 265.286 13.661L261.571 17.261L257.221 13.044L260.936 9.44399C261.079 9.3046 261.25 9.19403 261.438 9.11859C261.626 9.04315 261.827 9.00431 262.03 9.00431C262.234 9.00431 262.435 9.04315 262.623 9.11859C262.811 9.19403 262.981 9.3046 263.125 9.44399L263.124 9.43899V9.43899ZM260.842 17.962L256.492 13.745L255.873 14.345C255.729 14.4843 255.615 14.6497 255.537 14.8317C255.459 15.0138 255.419 15.2089 255.419 15.406C255.419 15.6031 255.459 15.7982 255.537 15.9802C255.615 16.1623 255.729 16.3277 255.873 16.467L258.039 18.562C258.19 18.7079 258.37 18.8222 258.568 18.8975C258.767 18.9729 258.979 19.0078 259.192 19H263.414C263.551 19 263.682 18.9473 263.779 18.8535C263.875 18.7598 263.93 18.6326 263.93 18.5C263.93 18.3674 263.875 18.2402 263.779 18.1464C263.682 18.0527 263.551 18 263.414 18H260.802L260.842 17.962V17.962Z" fill="#0066FF"/>
<g clip-path="url(#clip0_131_258)">
<path d="M249.616 25.9784C249.05 26.5078 248.709 27.2345 248.68 28.0494L248.575 33.9071L263.698 34.1768L263.832 28.3472C263.848 26.6753 262.517 25.3399 260.835 25.3391L251.769 25.1581C250.928 25.1576 250.167 25.4626 249.616 25.9784ZM248.539 35.8689L248.15 58.2638L252.255 55.1824L255.724 58.157L259.268 55.3011L263.274 58.5059L263.664 36.1109M248.597 60.372L255.429 72.1513L262.639 60.5404L259.266 57.83L255.677 60.7267L252.167 57.7099" fill="#0066FF"/>
</g>
<g clip-path="url(#clip1_131_258)">
<path d="M175.148 46.6017V63.9689C171.855 63.9689 165.927 61.6346 165.927 55.3439C165.927 47.4689 174.022 46.6017 175.148 46.6017V46.6017ZM173.907 37.3439C188.151 37.3439 197.101 52.3912 189.979 64.3642C182.858 76.3371 164.956 76.3371 157.834 64.3642C150.712 52.3913 159.663 37.3439 173.907 37.3439ZM178.84 41.6329H175.874V44.5626H174.378V41.6447C170.935 41.7728 167.961 43.1102 165.697 45.1279L167.827 47.1925L166.75 48.2367L164.632 46.1834C162.499 48.5337 161.2 51.5419 161.017 54.5858H164.037V56.0624H161.016C161.196 59.1111 162.489 62.1221 164.626 64.4699L166.75 62.4116L167.827 63.4557L165.694 65.5234C167.95 67.523 170.919 68.8467 174.378 68.9729V66.0856H175.874V68.9845H178.84V41.6329Z" fill="#0066FF"/>
</g>
<path d="M182.322 5H189.506V62.6562H182.322V5Z" fill="#0066FF" stroke="#0066FF" stroke-width="4" stroke-linejoin="round"/>
<path d="M182.322 16.5312H184.717M182.322 42.4766H185.316M182.322 25.1797H185.316M182.322 33.8281H184.717M182.322 51.125H184.717" stroke="white" stroke-width="4" stroke-linecap="round" stroke-linejoin="round"/>
<path d="M81.5 26.5833H60.9167V18.875L81.5 11.1667H100.5L121.083 18.875V26.5833H100.5" stroke="#0066FF" stroke-width="4" stroke-linecap="round" stroke-linejoin="round"/>
<path d="M100.5 11.1667H81.5V72.8333H100.5V11.1667Z" fill="#0066FF" stroke="#0066FF" stroke-width="4" stroke-linejoin="round"/>
<path d="M81.5 23.5H87.8333" stroke="white" stroke-width="4" stroke-linecap="round" stroke-linejoin="round"/>
<path d="M81.5 51.25H89.4167" stroke="white" stroke-width="4" stroke-linecap="round" stroke-linejoin="round"/>
<path d="M81.5 32.75H89.4167" stroke="white" stroke-width="4" stroke-linecap="round" stroke-linejoin="round"/>
<path d="M81.5 42H87.8333" stroke="white" stroke-width="4" stroke-linecap="round" stroke-linejoin="round"/>
<path d="M81.5 60.5H87.8333" stroke="white" stroke-width="4" stroke-linecap="round" stroke-linejoin="round"/>
<path d="M81.5 20.4167V63.5833" stroke="#0066FF" stroke-width="4" stroke-linecap="round" stroke-linejoin="round"/>
<defs>
<clipPath id="clip0_131_258">
<rect width="47.6751" height="47.6231" fill="white" transform="matrix(0.730104 -0.683336 0.705823 0.708388 221.369 45)"/>
</clipPath>
<clipPath id="clip1_131_258">
<rect width="36" height="37.1441" fill="white" transform="translate(155.335 73.3438) rotate(-90)"/>
</clipPath>
</defs>
</svg>
